<?xml version="1.0" encoding="UTF-8" standalone="no"?>
<svg
   xmlns:dc="http://purl.org/dc/elements/1.1/"
   xmlns:cc="http://creativecommons.org/ns#"
   xmlns:rdf="http://www.w3.org/1999/02/22-rdf-syntax-ns#"
   xmlns:svg="http://www.w3.org/2000/svg"
   xmlns="http://www.w3.org/2000/svg"
   xmlns:sodipodi="http://sodipodi.sourceforge.net/DTD/sodipodi-0.dtd"
   xmlns:inkscape="http://www.inkscape.org/namespaces/inkscape"
   enable-background="new 0 0 512 512"
   id="Layer_1"
   version="1.1"
   viewBox="0 0 17 13"
   xml:space="preserve"
   inkscape:version="0.48.4 r9939"
   width="100%"
   height="100%"
   sodipodi:docname="icon-gmail.svg"><metadata
     id="metadata11"><rdf:RDF><cc:Work
         rdf:about=""><dc:format>image/svg+xml</dc:format><dc:type
           rdf:resource="http://purl.org/dc/dcmitype/StillImage" /></cc:Work></rdf:RDF></metadata><defs
     id="defs9" /><sodipodi:namedview
     pagecolor="#ffffff"
     bordercolor="#666666"
     borderopacity="1"
     objecttolerance="10"
     gridtolerance="10"
     guidetolerance="10"
     inkscape:pageopacity="0"
     inkscape:pageshadow="2"
     inkscape:window-width="1920"
     inkscape:window-height="1017"
     id="namedview7"
     showgrid="true"
     fit-margin-top="0"
     fit-margin-left="0"
     fit-margin-right="0"
     fit-margin-bottom="0"
     inkscape:zoom="45.254834"
     inkscape:cx="2.8399281"
     inkscape:cy="7.2249314"
     inkscape:window-x="0"
     inkscape:window-y="0"
     inkscape:window-maximized="1"
     inkscape:current-layer="Layer_1"><inkscape:grid
       type="xygrid"
       id="grid2983"
       empspacing="5"
       visible="true"
       enabled="true"
       snapvisiblegridlinesonly="true" /></sodipodi:namedview><g
     id="g3"
     transform="matrix(0.03161431,0,0,0.03218729,0.2825526,-1.6462055)"
     style="fill:#808080"><path
       d="m 257.2,67.9 c 82.1,0 164.3,0 246.4,0 6.4,0 6.4,0 6.4,6.6 0,121.8 0,243.6 0.1,365.4 0,5.2 -1.4,6.3 -6.4,6.2 C 339.3,446 174.8,446 10.4,446 4,446 4,446 4,439.5 4,317.8 4,196.2 4,74.6 c 0,-6.7 0,-6.7 6.8,-6.7 82.1,0 164.2,0 246.4,0 z m 2.4,374 c 57.3,0 114.6,0 171.9,0.1 4.3,0 5.7,-0.9 5.6,-5.4 -0.3,-17.2 -1.1,-34.4 0.2,-51.5 0.9,-12.7 -3.6,-19.7 -14,-26.8 -41.9,-28.6 -83,-58.3 -124.3,-87.8 -3.5,-2.5 -6.1,-3.1 -9.3,0.4 -8.7,9.2 -19.1,16.5 -28.3,25.3 -2.1,2.1 -3.6,2 -5.9,0.1 -11.4,-9.7 -23,-19.1 -34.3,-29 -2.9,-2.5 -4.5,-2.1 -7.1,0.1 -6.6,5.6 -13.3,11.1 -20,16.5 -17.6,14.2 -35.3,28.3 -52.9,42.5 -18.3,14.7 -36.4,29.6 -54.8,44.2 -2.5,2 -3.6,3.6 -3.6,6.8 0.1,19.7 0.2,39.3 0,59 -0.1,4.8 1.6,5.7 6,5.7 56.8,-0.2 113.8,-0.2 170.8,-0.2 z M 105.9,71.8 c -0.3,0.5 -0.6,1 -0.8,1.5 1.4,1.1 3,2.1 4.2,3.4 33.4,33.2 66.6,66.8 100.4,99.6 14.7,14.3 29.1,28.8 43.4,43.4 2.7,2.8 4.7,2.9 7.5,0.3 13.5,-12.3 27.3,-24.3 40.5,-36.9 16,-15.1 31.3,-30.9 47.1,-46.2 20.6,-19.9 40.5,-40.5 61.3,-60.2 1.2,-1.2 3.7,-2.2 2.8,-4.2 -0.7,-1.6 -3,-0.7 -4.6,-0.7 -99,-0.1 -198,-0.2 -297,-0.2 -1.6,0.2 -3.2,0.2 -4.8,0.2 z m 330.8,72.9 c -1.7,0 -2.6,1.1 -3.5,1.9 -17.9,15.4 -35.7,30.9 -53.6,46.4 -14.8,12.9 -29.6,25.7 -44.4,38.6 -10.2,8.8 -20.4,17.7 -30.6,26.5 -2,1.7 -2.2,2.9 0.3,4.5 4.2,2.7 8.2,5.7 12.3,8.5 30.7,21.5 61.3,42.9 92,64.3 8.9,6.2 17.9,12.4 27.5,19.1 0,-70.5 0,-140.1 0,-209.8 z M 83.1,358.9 c 10.6,-8.4 20.8,-16.3 30.9,-24.4 30,-24 60,-48 90,-72 6,-4.7 6.2,-4.6 0.2,-9.7 -35.6,-30.3 -71.2,-60.6 -106.9,-90.7 -4.6,-3.8 -8.5,-8.5 -14.2,-11.5 0,69.5 0,138.5 0,208.3 z"
       id="path5"
       inkscape:connector-curvature="0"
       style="fill:#808080" /></g></svg>